<svg version="1.1" viewBox="0.0 0.0 837.3464566929134 232.0" fill="none" stroke="none" stroke-linecap="square" stroke-miterlimit="10" xmlns:xlink="http://www.w3.org/1999/xlink" xmlns="http://www.w3.org/2000/svg"><clipPath id="p.0"><path d="m0 0l837.34644 0l0 232.0l-837.34644 0l0 -232.0z" clip-rule="nonzero"/></clipPath><g clip-path="url(#p.0)"><path fill="#000000" fill-opacity="0.0" d="m0 0l837.34644 0l0 232.0l-837.34644 0z" fill-rule="evenodd"/><path fill="#000000" fill-opacity="0.0" d="m240.79396 45.979004l588.9764 0l0 145.63779l-588.9764 0z" fill-rule="evenodd"/><path fill="#434343" d="m290.14114 165.03853q-8.75 0 -15.78125 -4.3125q-7.015625 -4.3125 -11.078125 -12.46875q-4.046875 -8.171875 -4.046875 -19.328125q0 -19.25 8.234375 -35.640625q8.234375 -16.40625 24.3125 -26.34375q16.09375 -9.953125 38.640625 -9.953125q5.8125 0 12.46875 0.890625q6.65625 0.890625 12.09375 2.65625q3.546875 1.015625 3.546875 5.0625q0 3.296875 -2.46875 6.21875q-2.46875 2.90625 -5.765625 2.90625q-1.015625 0 -1.515625 -0.125q-6.59375 -1.515625 -11.28125 -2.21875q-4.671875 -0.703125 -9.875 -0.703125q-16.078125 0 -27.359375 7.796875q-11.265625 7.78125 -16.84375 20.578125q-5.5625 12.796875 -5.5625 27.609375q0 10.765625 4.234375 16.65625q4.25 5.890625 11.078125 5.890625q7.734375 0 13.5625 -6.328125q5.828125 -6.328125 10.640625 -20.515625q4.8125 -14.1875 9.5 -38.515625q0.75 -3.546875 3.03125 -4.8125q2.28125 -1.265625 6.078125 -1.265625q9.0 0 9.0 5.828125q0 1.015625 -0.390625 2.53125q-3.28125 12.296875 -6.015625 27.1875q-2.71875 14.875 -2.71875 22.59375q0 6.84375 2.015625 9.953125q2.03125 3.09375 6.21875 3.09375q4.046875 0 7.71875 -2.71875q3.671875 -2.734375 9.25 -9.3125q1.515625 -1.78125 3.421875 -1.78125q1.640625 0 2.59375 1.53125q0.953125 1.515625 0.953125 4.171875q0 4.9375 -2.40625 7.859375q-6.203125 7.46875 -12.15625 11.40625q-5.953125 3.921875 -14.5625 3.921875q-8.875 0 -14.328125 -5.125q-5.4375 -5.140625 -6.828125 -14.515625q-9.375 19.640625 -27.609375 19.640625zm132.47372 -28.625q1.65625 0 2.59375 1.578125q0.953125 1.578125 0.953125 3.984375q0 2.921875 -0.890625 4.5625q-0.875 1.640625 -2.78125 2.90625q-10.890625 7.359375 -15.953125 10.90625l-8.109375 5.4375q-4.8125 26.21875 -12.609375 41.21875q-7.78125 15.015625 -19.8125 15.015625q-6.453125 0 -10.515625 -3.984375q-4.046875 -3.984375 -4.046875 -10.453125q0 -8.984375 7.09375 -19.3125q7.09375 -10.328125 26.59375 -25.390625l0.765625 -4.9375q-2.15625 3.40625 -5.640625 5.25q-3.484375 1.84375 -6.90625 1.84375q-7.84375 0 -12.53125 -5.703125q-4.6875 -5.703125 -4.6875 -14.953125q0 -10.125 4.6875 -19.171875q4.6875 -9.0625 12.46875 -14.578125q7.796875 -5.515625 16.53125 -5.515625q2.78125 0 3.734375 1.078125q0.953125 1.078125 1.578125 3.875q2.40625 -0.515625 5.578125 -0.515625q3.171875 0 4.5 0.953125q1.328125 0.953125 1.328125 3.734375q0 1.515625 -0.125 2.40625q-0.515625 3.921875 -3.171875 19.890625q-0.5 3.03125 -1.078125 6.640625q-0.5625 3.609375 -1.203125 7.671875q9.75 -7.609375 18.75 -13.4375q1.640625 -1.0 2.90625 -1.0zm-44.703125 15.828125q2.90625 0 5.5625 -3.546875q2.671875 -3.546875 3.8125 -10.140625l4.046875 -21.65625q-5.1875 0.125 -9.625 4.0q-4.4375 3.859375 -7.09375 10.1875q-2.65625 6.328125 -2.65625 13.421875q0 3.9375 1.578125 5.84375q1.59375 1.890625 4.375 1.890625zm-10.515625 57.5q3.171875 0 7.15625 -7.609375q3.984375 -7.59375 7.671875 -24.1875q-9.765625 8.359375 -14.078125 15.078125q-4.296875 6.71875 -4.296875 11.78125q0 2.15625 0.828125 3.546875q0.828125 1.390625 2.71875 1.390625zm58.650024 -44.703125q-4.8125 0 -6.78125 -5.0625q-1.96875 -5.078125 -1.96875 -16.21875q0 -16.46875 4.6875 -31.28125q1.140625 -3.6875 3.734375 -5.390625q2.609375 -1.703125 7.28125 -1.703125q2.546875 0 3.546875 0.640625q1.015625 0.625 1.015625 2.390625q0 2.03125 -1.890625 9.125q-1.265625 5.0625 -2.03125 8.859375q-0.765625 3.796875 -1.265625 9.375q4.171875 -10.890625 9.359375 -17.734375q5.203125 -6.84375 10.203125 -9.75q5.0 -2.90625 9.1875 -2.90625q8.234375 0 8.234375 8.21875q0 4.953125 -2.78125 17.859375q-2.40625 11.03125 -2.40625 14.578125q0 5.0625 3.671875 5.0625q2.53125 0 6.015625 -3.09375q3.484375 -3.109375 9.296875 -10.078125q1.53125 -1.78125 3.421875 -1.78125q1.65625 0 2.59375 1.53125q0.953125 1.515625 0.953125 4.171875q0 5.0625 -2.40625 7.859375q-5.4375 6.703125 -11.71875 11.015625q-6.265625 4.3125 -14.234375 4.3125q-6.46875 0 -9.765625 -3.734375q-3.28125 -3.75 -3.28125 -10.84375q0 -3.546875 1.765625 -12.65625q1.640625 -7.984375 1.640625 -11.015625q0 -2.03125 -1.390625 -2.03125q-1.640625 0 -4.625 4.25q-2.96875 4.234375 -6.078125 11.203125q-3.09375 6.96875 -5.0 14.6875q-1.390625 5.953125 -3.234375 8.046875q-1.828125 2.09375 -5.75 2.09375zm110.30591 -28.890625q1.65625 0 2.59375 1.53125q0.953125 1.515625 0.953125 4.171875q0 5.0625 -2.40625 7.859375q-4.6875 5.6875 -13.234375 10.515625q-8.546875 4.8125 -18.296875 4.8125q-13.296875 0 -20.65625 -7.21875q-7.34375 -7.234375 -7.34375 -19.765625q0 -8.734375 3.671875 -16.265625q3.6875 -7.546875 10.203125 -11.96875q6.53125 -4.4375 14.75 -4.4375q7.359375 0 11.78125 4.375q4.4375 4.359375 4.4375 11.828125q0 8.734375 -6.265625 15.015625q-6.265625 6.265625 -21.21875 9.9375q3.171875 5.828125 12.03125 5.828125q5.703125 0 12.984375 -3.984375q7.28125 -4.0 12.609375 -10.453125q1.515625 -1.78125 3.40625 -1.78125zm-31.90625 -18.359375q-4.6875 0 -7.921875 5.453125q-3.234375 5.4375 -3.234375 13.171875l0 0.25q7.484375 -1.78125 11.78125 -5.328125q4.3125 -3.546875 4.3125 -8.234375q0 -2.40625 -1.328125 -3.859375q-1.328125 -1.453125 -3.609375 -1.453125zm3.296875 -20.765625q-2.28125 0 -3.9375 -2.15625l-16.328125 -21.03125q-2.796875 -3.546875 -2.796875 -7.09375q0 -3.546875 2.46875 -5.828125q2.46875 -2.28125 5.640625 -2.28125q2.15625 0 4.046875 1.28125q1.90625 1.265625 3.046875 3.796875l11.78125 26.34375q0.5 1.140625 0.5 2.40625q0 1.890625 -1.328125 3.234375q-1.328125 1.328125 -3.09375 1.328125zm45.46338 70.796875q-6.59375 0 -10.078125 -3.046875q-3.484375 -3.03125 -3.484375 -6.828125q0 -3.296875 2.40625 -5.703125q2.40625 -2.40625 7.09375 -2.40625q1.65625 0 3.875 0.3125q2.21875 0.3125 3.34375 0.4375q-0.125 -3.28125 -1.453125 -6.1875q-1.328125 -2.921875 -3.359375 -5.640625q-2.015625 -2.734375 -3.796875 -4.75q-3.921875 7.46875 -7.796875 12.40625q-3.859375 4.9375 -8.40625 9.375q-2.28125 2.28125 -4.8125 2.28125q-2.03125 0 -3.296875 -1.453125q-1.265625 -1.46875 -1.265625 -3.625q0 -2.53125 1.765625 -4.671875l1.65625 -2.03125q6.96875 -8.609375 10.5 -14.1875q2.28125 -3.671875 4.625 -8.734375q2.34375 -5.078125 6.15625 -13.8125q2.40625 -5.578125 10.0 -5.578125q3.546875 0 4.9375 0.640625q1.390625 0.625 1.390625 2.03125q0 0.75 -0.515625 2.40625q-0.5 1.640625 -1.375 3.28125q-2.28125 4.5625 -2.28125 7.734375q0 1.890625 1.328125 4.171875q1.328125 2.28125 4.109375 5.703125q4.0625 5.328125 6.140625 9.0625q2.09375 3.734375 2.09375 8.171875q0 5.3125 -2.46875 10.0625q-2.46875 4.75 -6.90625 7.65625q-4.421875 2.921875 -10.125 2.921875z" fill-rule="nonzero"/><path fill="#a6221e" d="m636.42255 165.03853q-4.6875 0 -6.71875 -2.09375q-2.03125 -2.09375 -2.03125 -7.921875q0 -3.921875 0.828125 -10.0625q0.828125 -6.140625 2.71875 -16.90625q3.296875 -19.890625 5.203125 -34.453125q1.140625 -9.125 1.140625 -15.203125q0 -5.703125 -4.1875 -5.703125q-3.296875 0 -7.921875 3.359375q-4.609375 3.359375 -10.1875 10.703125q-1.78125 2.40625 -3.921875 2.40625q-1.78125 0 -3.109375 -1.703125q-1.328125 -1.71875 -1.328125 -3.875q0 -2.015625 0.8125 -4.109375q0.828125 -2.09375 2.734375 -4.75q6.078125 -8.484375 13.546875 -13.109375q7.46875 -4.625 14.953125 -4.625q6.96875 0 10.703125 4.4375q3.734375 4.4375 3.734375 12.921875q0 3.40625 -0.640625 8.03125q-0.625 4.625 -1.140625 7.546875q-0.5 2.90625 -0.75 4.046875q7.21875 -20.640625 16.203125 -28.8125q9.0 -8.171875 19.765625 -8.171875q8.234375 0 12.984375 5.828125q4.75 5.828125 4.75 16.46875q0 4.171875 -1.140625 10.375q6.328125 -17.46875 14.8125 -25.0625q8.484375 -7.609375 19.5 -7.609375q8.875 0 13.625 5.703125q4.75 5.703125 4.75 15.953125q0 5.578125 -1.65625 13.5625l-7.71875 36.21875q-1.265625 6.328125 -1.265625 10.890625q0 5.3125 2.46875 7.984375q2.46875 2.65625 6.90625 2.65625q4.171875 0 8.15625 -2.78125q4.0 -2.796875 9.4375 -9.25q1.53125 -1.78125 3.421875 -1.78125q1.65625 0 2.59375 1.53125q0.953125 1.515625 0.953125 4.171875q0 4.9375 -2.40625 7.859375q-6.578125 7.96875 -13.046875 11.65625q-6.453125 3.671875 -13.546875 3.671875q-10.765625 0 -16.84375 -6.390625q-6.078125 -6.40625 -6.078125 -17.171875q0 -7.46875 3.03125 -21.65625l5.078125 -23.1875q0.25 -1.140625 0.875 -4.046875q0.640625 -2.921875 1.015625 -5.515625q0.390625 -2.59375 0.390625 -5.125q0 -4.4375 -1.71875 -6.640625q-1.703125 -2.21875 -4.875 -2.21875q-5.953125 0 -12.484375 7.65625q-6.515625 7.65625 -12.40625 25.390625q-5.890625 17.734375 -9.5625 46.109375q-0.890625 7.59375 -3.109375 10.203125q-2.203125 2.59375 -7.140625 2.59375q-4.3125 0 -6.28125 -2.03125q-1.953125 -2.03125 -1.953125 -7.609375q0 -5.1875 1.390625 -13.609375q1.390625 -8.421875 3.546875 -19.828125q5.828125 -30.640625 5.828125 -39.515625q0 -4.8125 -1.84375 -7.078125q-1.828125 -2.28125 -5.5 -2.28125q-6.21875 0 -12.8125 7.03125q-6.578125 7.015625 -12.84375 24.9375q-6.265625 17.921875 -10.453125 48.453125q-0.875 6.453125 -2.59375 9.0q-1.703125 2.53125 -6.640625 2.53125zm164.26245 0q-5.5625 0 -8.421875 -3.046875q-2.84375 -3.046875 -2.84375 -7.984375q0 -5.6875 3.21875 -9.109375q3.234375 -3.421875 9.0625 -3.421875q5.578125 0 8.421875 2.71875q2.859375 2.71875 2.859375 8.046875q0 5.828125 -3.296875 9.3125q-3.296875 3.484375 -9.0 3.484375z" fill-rule="nonzero"/><path fill="#000000" fill-opacity="0.0" d="m17.02231 116.0l0 0c0 -57.402824 46.53418 -103.93701 103.93701 -103.93701l0 0c27.565811 0 54.002594 10.950476 73.49457 30.442444c19.491959 19.49197 30.442444 45.928753 30.442444 73.49457l0 0c0 57.402817 -46.534195 103.93701 -103.93701 103.93701l0 0c-57.40283 0 -103.93701 -46.534195 -103.93701 -103.93701z" fill-rule="evenodd"/><path stroke="#434343" stroke-width="3.0" stroke-linejoin="round" stroke-linecap="butt" d="m17.02231 116.0l0 0c0 -57.402824 46.53418 -103.93701 103.93701 -103.93701l0 0c27.565811 0 54.002594 10.950476 73.49457 30.442444c19.491959 19.49197 30.442444 45.928753 30.442444 73.49457l0 0c0 57.402817 -46.534195 103.93701 -103.93701 103.93701l0 0c-57.40283 0 -103.93701 -46.534195 -103.93701 -103.93701z" fill-rule="evenodd"/><path fill="#000000" fill-opacity="0.0" d="m7.5734906 65.11811l226.77165 0l0 101.76379l-226.77165 0z" fill-rule="evenodd"/><path fill="#434343" d="m52.89224 151.14436q-6.625 0 -11.953125 -3.265625q-5.328125 -3.265625 -8.40625 -9.453125q-3.0625 -6.203125 -3.0625 -14.640617q0 -14.59375 6.234375 -27.03125q6.25 -12.4375 18.4375 -19.96875q12.187504 -7.53125 29.281254 -7.53125q4.421875 0 9.453125 0.671875q5.046875 0.671875 9.171875 2.015625q2.6875 0.765625 2.6875 3.84375q0 2.484375 -1.875 4.703125q-1.875 2.203125 -4.359375 2.203125q-0.78125 0 -1.15625 -0.09375q-5.0 -1.15625 -8.546875 -1.671875q-3.546875 -0.53125 -7.484375 -0.53125q-12.1875 0 -20.734379 5.90625q-8.546875 5.890625 -12.78125 15.59375q-4.21875 9.6875 -4.21875 20.921875q0 8.156242 3.21875 12.624992q3.21875 4.46875 8.40625 4.46875q5.84375 0 10.265629 -4.796875q4.421875 -4.8125 8.0625 -15.562492q3.65625 -10.75 7.203125 -29.171875q0.578125 -2.6875 2.296875 -3.640625q1.734375 -0.96875 4.609375 -0.96875q6.828125 0 6.828125 4.40625q0 0.765625 -0.296875 1.921875q-2.5 9.3125 -4.5625 20.59375q-2.0625 11.28125 -2.0625 17.140617q0 5.1875 1.53125 7.546875q1.546875 2.34375 4.71875 2.34375q3.0625 0 5.84375 -2.0625q2.796875 -2.078125 7.015625 -7.0625q1.15625 -1.34375 2.59375 -1.34375q1.25 0 1.96875 1.15625q0.71875 1.140625 0.71875 3.15625q0 3.75 -1.828125 5.953125q-4.703125 5.671875 -9.21875 8.65625q-4.515625 2.96875 -11.03125 2.96875q-6.71875 0 -10.859375 -3.890625q-4.125 -3.890625 -5.171875 -11.0q-7.109375 14.890625 -20.937504 14.890625z" fill-rule="nonzero"/><path fill="#a6221e" d="m121.816956 151.14436q-3.546875 0 -5.09375 -1.578125q-1.53125 -1.59375 -1.53125 -6.015625q0 -2.96875 0.625 -7.625q0.625 -4.65625 2.078125 -12.812492q2.484375 -15.078125 3.921875 -26.109375q0.875 -6.921875 0.875 -11.53125q0 -4.3125 -3.171875 -4.3125q-2.5 0 -6.0 2.546875q-3.5 2.53125 -7.734375 8.109375q-1.34375 1.8125 -2.96875 1.8125q-1.34375 0 -2.359375 -1.28125q-1.0 -1.296875 -1.0 -2.9375q0 -1.53125 0.625 -3.109375q0.625 -1.59375 2.0625 -3.609375q4.609375 -6.4375 10.265625 -9.9375q5.671875 -3.5 11.328125 -3.5q5.28125 0 8.109375 3.359375q2.84375 3.359375 2.84375 9.796875q0 2.59375 -0.484375 6.09375q-0.484375 3.5 -0.875 5.71875q-0.375 2.203125 -0.5625 3.0625q5.46875 -15.65625 12.28125 -21.84375q6.8125 -6.1875 14.984375 -6.1875q6.234375 0 9.828125 4.421875q3.609375 4.40625 3.609375 12.46875q0 3.171875 -0.859375 7.875q4.796875 -13.25 11.21875 -19.0q6.4375 -5.765625 14.796875 -5.765625q6.71875 0 10.3125 4.328125q3.59375 4.3125 3.59375 12.09375q0 4.21875 -1.234375 10.265625l-5.859375 27.453125q-0.96875 4.7968674 -0.96875 8.249992q0 4.046875 1.875 6.0625q1.875 2.015625 5.234375 2.015625q3.171875 0 6.1875 -2.109375q3.03125 -2.125 7.15625 -7.015625q1.15625 -1.34375 2.59375 -1.34375q1.25 0 1.96875 1.15625q0.71875 1.140625 0.71875 3.15625q0 3.75 -1.828125 5.953125q-4.984375 6.046875 -9.890625 8.84375q-4.890625 2.78125 -10.265625 2.78125q-8.15625 0 -12.765625 -4.84375q-4.609375 -4.859375 -4.609375 -13.015625q0 -5.6718674 2.296875 -16.421867l3.84375 -17.5625q0.1875 -0.859375 0.671875 -3.0625q0.484375 -2.21875 0.765625 -4.1875q0.296875 -1.96875 0.296875 -3.890625q0 -3.359375 -1.296875 -5.03125q-1.296875 -1.6875 -3.703125 -1.6875q-4.515625 0 -9.453125 5.8125q-4.9375 5.8125 -9.40625 19.25q-4.46875 13.4375 -7.25 34.937492q-0.671875 5.765625 -2.359375 7.734375q-1.671875 1.96875 -5.421875 1.96875q-3.25 0 -4.75 -1.53125q-1.484375 -1.546875 -1.484375 -5.765625q0 -3.9375 1.046875 -10.3125q1.0625 -6.3906174 2.703125 -15.031242q4.40625 -23.234375 4.40625 -29.953125q0 -3.65625 -1.390625 -5.375q-1.390625 -1.734375 -4.171875 -1.734375q-4.703125 0 -9.703125 5.328125q-4.984375 5.328125 -9.734375 18.921875q-4.75 13.578125 -7.921875 36.718742q-0.671875 4.890625 -1.96875 6.8125q-1.296875 1.921875 -5.046875 1.921875z" fill-rule="nonzero"/></g></svg>